<?xml version="1.0" standalone="no"?><!DOCTYPE svg PUBLIC "-//W3C//DTD SVG 1.1//EN" "http://www.w3.org/Graphics/SVG/1.1/DTD/svg11.dtd"><svg t="1769588883261" class="icon" viewBox="0 0 1024 1024" version="1.1" xmlns="http://www.w3.org/2000/svg" p-id="5204" xmlns:xlink="http://www.w3.org/1999/xlink" width="200" height="200"><path d="M438.224 553.966c-19.538-13.908-36.254-28.062-50.21-41.892-11.538 11.466-21.664 23.14-30.04 34.796-20.794 28.938-28.322 54.468-20.126 68.292 6.234 10.522 23.632 16.56 47.73 16.56h0.008c18.906 0 40.674-3.61 63.802-10.256-5.144-19.764-9.062-42.37-11.164-67.5zM686.16 408.762c-6.234-10.522-23.632-16.558-47.726-16.558-18.938 0-40.742 3.62-63.914 10.286 5.144 19.748 9.064 42.336 11.17 67.444 18.73 13.382 35.664 27.592 50.302 42.142 44.642-44.236 60.974-85.076 50.168-103.314z" fill="#FFD452" p-id="5205"></path><path d="M449.406 402.468c-23.14-6.65-44.918-10.264-63.836-10.264-24.094 0-41.492 6.036-47.726 16.558-10.806 18.238 5.526 59.078 50.166 103.312 13.956 13.83 30.674 27.982 50.21 41.892a503.366 503.366 0 0 1-1.736-41.96c0-14.692 0.624-28.692 1.74-42.008 2.11-25.144 6.032-47.76 11.182-67.53zM666.032 546.872c-8.376-11.656-18.502-23.33-30.04-34.796-14.64-14.55-31.572-28.76-50.302-42.142 1.12 13.336 1.746 27.356 1.746 42.072 0 14.698-0.624 28.7-1.74 42.022-2.104 25.094-6.018 47.672-11.154 67.414 23.162 6.662 44.96 10.28 63.894 10.28 24.094 0 41.492-6.036 47.726-16.56 8.192-13.822 0.664-39.352-20.13-68.29z" fill="#71CCE0" p-id="5206"></path><path d="M585.708 469.936c-2.106-25.132-6.036-47.688-11.184-67.436-15.396-59.154-41.698-92.942-62.57-92.942-20.826 0-47.126 33.742-62.57 92.894-5.148 19.796-9.032 42.4-11.138 67.53a499.584 499.584 0 0 0-1.778 42.024c0 14.694 0.656 28.642 1.778 41.978 2.06 25.13 5.99 47.734 11.138 67.482 15.396 59.2 41.698 92.988 62.57 92.988s47.172-33.788 62.57-93.036c5.148-19.702 9.078-42.306 11.184-67.39 1.124-13.338 1.732-27.33 1.732-42.024 0-14.692-0.608-28.732-1.732-42.068zM512 553.33c-22.838 0-41.322-18.532-41.322-41.37s18.486-41.324 41.322-41.324 41.37 18.486 41.37 41.324-18.532 41.37-41.37 41.37z" fill="#F58E6F" p-id="5207"></path><path d="M142.682 142.68v738.638h738.636V142.68H142.682z m724.596 724.598H156.722V156.72H867.28v710.558z" fill="#4A555F" p-id="5208"></path><path d="M174.95 174.974v674.056h674.106V174.974H174.95z m643.132 566.784l-75.642 76.298H281.616l-75.642-76.298-0.05-459.46 75.692-76.348H742.44l75.642 76.348v459.46z" fill="#DFDFDF" p-id="5209"></path><path d="M745.38 198.946H278.666l-79.768 80.438 0.06 465.24 79.708 80.446H745.38l79.704-80.446V279.388L745.38 198.946z m65.662 539.902l-71.514 72.184H284.516l-71.518-72.184-0.06-453.68 71.578-72.18h455.014l71.514 72.178v453.682zM246.364 0v156.72h79.782V0h-79.782z m65.742 142.68h-51.702V14.04h51.702v128.64z" fill="#4A555F" p-id="5210"></path><path d="M278.648 32.284h15.21v92.152h-15.21z" fill="#FFD452" p-id="5211"></path><path d="M394.73 0v156.72h79.782V0h-79.782z m65.742 142.68h-51.702V14.04h51.702v128.64z" fill="#4A555F" p-id="5212"></path><path d="M427.016 32.284h15.212v92.152h-15.212z" fill="#FFD452" p-id="5213"></path><path d="M543.1 0v156.72h79.78V0h-79.78z m65.742 142.68H557.14V14.04h51.702v128.64z" fill="#4A555F" p-id="5214"></path><path d="M575.384 32.284h15.208v92.152h-15.208z" fill="#FFD452" p-id="5215"></path><path d="M691.466 0v156.72h79.782V0h-79.782z m65.74 142.68h-51.702V14.04h51.702v128.64z" fill="#4A555F" p-id="5216"></path><path d="M723.75 32.284h15.214v92.152h-15.214z" fill="#FFD452" p-id="5217"></path><path d="M246.364 867.278V1024h79.782v-156.722h-79.782z m65.742 142.682h-51.702v-128.644h51.702v128.644z" fill="#4A555F" p-id="5218"></path><path d="M278.648 899.562h15.21v92.152h-15.21z" fill="#FFD452" p-id="5219"></path><path d="M394.73 867.278V1024h79.782v-156.722h-79.782z m65.742 142.682h-51.702v-128.644h51.702v128.644z" fill="#4A555F" p-id="5220"></path><path d="M427.016 899.562h15.212v92.152h-15.212z" fill="#FFD452" p-id="5221"></path><path d="M543.1 867.278V1024h79.78v-156.722h-79.78z m65.742 142.682H557.14v-128.644h51.702v128.644z" fill="#4A555F" p-id="5222"></path><path d="M575.384 899.562h15.208v92.152h-15.208z" fill="#FFD452" p-id="5223"></path><path d="M691.466 867.278V1024h79.782v-156.722h-79.782z m65.74 142.682h-51.702v-128.644h51.702v128.644z" fill="#4A555F" p-id="5224"></path><path d="M723.75 899.562h15.214v92.152h-15.214z" fill="#FFD452" p-id="5225"></path><path d="M867.278 249.558v79.78h156.72v-79.78h-156.72z m142.68 65.74h-128.64v-51.7h128.64v51.7z" fill="#4A555F" p-id="5226"></path><path d="M899.564 281.842h92.15v15.212h-92.15z" fill="#FFD452" p-id="5227"></path><path d="M867.278 397.926v79.78h156.72v-79.78h-156.72z m142.68 65.74h-128.64v-51.7h128.64v51.7z" fill="#4A555F" p-id="5228"></path><path d="M899.564 430.208h92.15v15.212h-92.15z" fill="#FFD452" p-id="5229"></path><path d="M867.278 546.292v79.78h156.72v-79.78h-156.72z m142.68 65.74h-128.64v-51.7h128.64v51.7z" fill="#4A555F" p-id="5230"></path><path d="M899.564 578.576h92.15v15.21h-92.15z" fill="#FFD452" p-id="5231"></path><path d="M867.278 694.658v79.782h156.72v-79.782h-156.72z m142.68 65.742h-128.64v-51.702h128.64V760.4z" fill="#4A555F" p-id="5232"></path><path d="M899.564 726.944h92.15v15.212h-92.15z" fill="#FFD452" p-id="5233"></path><path d="M0.002 249.558v79.78h156.72v-79.78H0.002z m142.68 65.74H14.042v-51.7h128.64v51.7z" fill="#4A555F" p-id="5234"></path><path d="M32.284 281.842h92.154v15.212H32.284z" fill="#FFD452" p-id="5235"></path><path d="M0.002 397.924v79.782h156.72v-79.78l-156.72-0.002z m142.68 65.742H14.042v-51.702l128.64 0.002v51.7z" fill="#4A555F" p-id="5236"></path><path d="M32.284 430.208h92.154v15.212H32.284z" fill="#FFD452" p-id="5237"></path><path d="M0.002 546.29v79.782h156.72v-79.782H0.002z m142.68 65.742H14.042v-51.702h128.64v51.702z" fill="#4A555F" p-id="5238"></path><path d="M32.284 578.576h92.154v15.212H32.284z" fill="#FFD452" p-id="5239"></path><path d="M0.002 694.658v79.782h156.72v-79.782H0.002z m142.68 65.742H14.042v-51.702h128.64V760.4z" fill="#4A555F" p-id="5240"></path><path d="M32.284 726.944h92.154v15.212H32.284z" fill="#FFD452" p-id="5241"></path><path d="M511.958 279.158c-59.38 0-105.89 102.28-105.89 232.85s46.51 232.85 105.89 232.85 105.896-102.28 105.896-232.85-46.516-232.85-105.896-232.85z m0 451.66c-49.788 0-91.852-100.202-91.852-218.81s42.064-218.81 91.852-218.81c49.792 0 91.856 100.202 91.856 218.81s-42.064 218.81-91.856 218.81z" fill="#4A555F" p-id="5242"></path><path d="M690.734 529.122c-27.728-38.584-72.026-77.032-124.738-108.268-63.346-37.54-129.11-59.068-180.424-59.068-36.14 0-61.698 10.882-73.894 31.47-14.976 25.27-7.308 61.334 21.594 101.552 27.728 38.584 72.026 77.032 124.738 108.266 63.352 37.54 129.116 59.068 180.426 59.068 36.146 0 61.698-10.882 73.896-31.47 14.972-25.27 7.304-61.334-21.598-101.55z m9.52 94.394c-12.046 20.324-40.268 24.588-61.82 24.588-48.146 0-112.92-21.348-173.268-57.106-51.08-30.268-93.872-67.336-120.492-104.382-25.082-34.896-32.704-66.316-20.922-86.2 12.046-20.322 40.268-24.588 61.82-24.588 48.152 0 112.924 21.348 173.268 57.106 51.08 30.268 93.87 67.336 120.492 104.382 25.08 34.894 32.704 66.314 20.922 86.2z" fill="#4A555F" p-id="5243"></path><path d="M712.328 393.256c-12.198-20.588-37.75-31.47-73.896-31.47-51.308 0-117.074 21.528-180.426 59.068-52.712 31.234-97.01 69.684-124.738 108.268-28.902 40.216-36.57 76.28-21.594 101.55 12.198 20.586 37.75 31.47 73.894 31.47h0.01c51.308 0 117.068-21.528 180.416-59.068 52.712-31.234 97.01-69.684 124.738-108.266 28.904-40.218 36.572-76.28 21.596-101.552z m-32.996 93.358c-26.622 37.046-69.412 74.114-120.492 104.382-60.348 35.762-125.122 57.108-173.268 57.106-21.552 0-49.778-4.266-61.82-24.588-11.782-19.884-4.158-51.304 20.922-86.2 26.62-37.046 69.412-74.114 120.492-104.382 60.348-35.76 125.122-57.106 173.268-57.106 21.552 0 49.774 4.264 61.82 24.588 11.782 19.884 4.158 51.304-20.922 86.2z" fill="#4A555F" p-id="5244"></path><path d="M512.004 463.596c-26.672 0-48.37 21.698-48.37 48.368s21.698 48.366 48.37 48.366c26.666 0 48.366-21.696 48.366-48.366 0-26.67-21.698-48.368-48.366-48.368z m0 82.694c-18.93 0-34.33-15.4-34.33-34.326 0-18.93 15.402-34.328 34.33-34.328 18.93 0 34.326 15.398 34.326 34.328 0.002 18.928-15.396 34.326-34.326 34.326z" fill="#4A555F" p-id="5245"></path></svg>